<?xml version="1.0" encoding="UTF-8"?>
<svg xmlns="http://www.w3.org/2000/svg" xmlns:xlink="http://www.w3.org/1999/xlink" width="30px" height="30px" viewBox="0 0 30 30" version="1.1">
<g id="surface1">
<path style=" stroke:none;fill-rule:nonzero;fill:rgb(0%,0%,0%);fill-opacity:1;" d="M 29.792969 8.285156 L 26.097656 5.980469 L 24.730469 4.265625 C 24.539062 4.027344 24.21875 3.925781 23.933594 4.035156 C 23.660156 4.136719 23.484375 4.386719 23.484375 4.679688 L 23.484375 6.550781 L 17.660156 10.582031 L 9.269531 11.519531 C 7.339844 11.730469 5.765625 12.988281 5.074219 14.683594 L 1.371094 17.507812 C 1.207031 17.632812 0.960938 17.554688 0.910156 17.355469 C 0.890625 17.28125 0.878906 17.199219 0.878906 17.117188 C 0.878906 16.890625 0.703125 16.699219 0.480469 16.675781 C 0.222656 16.652344 0 16.859375 0 17.117188 C 0 18.132812 0.832031 18.964844 1.847656 18.964844 L 4.078125 18.964844 L 3.6875 19.621094 C 3.425781 20.050781 3.289062 20.546875 3.289062 21.054688 L 3.289062 24.628906 C 3.289062 25.394531 3.902344 26.007812 4.667969 26.007812 L 6.53125 26.007812 C 6.640625 26.007812 6.746094 25.976562 6.828125 25.910156 C 6.988281 25.769531 7.027344 25.550781 6.9375 25.371094 L 6.257812 24.011719 C 6.027344 23.546875 5.546875 23.25 5.027344 23.25 L 4.164062 23.25 L 4.164062 22.183594 L 4.6875 22.097656 C 5.871094 21.902344 7.003906 21.433594 7.984375 20.734375 L 7.984375 24.628906 C 7.984375 25.394531 8.601562 26.007812 9.363281 26.007812 L 11.230469 26.007812 C 11.335938 26.007812 11.445312 25.976562 11.523438 25.910156 C 11.683594 25.769531 11.726562 25.550781 11.636719 25.371094 L 10.957031 24.011719 C 10.722656 23.546875 10.246094 23.25 9.722656 23.25 L 8.863281 23.25 L 8.863281 22.464844 L 12.960938 18.363281 C 12.964844 18.363281 12.964844 18.363281 12.96875 18.359375 L 17.246094 19.171875 C 17.492188 19.214844 17.726562 19.054688 17.761719 18.808594 C 17.800781 18.570312 17.628906 18.347656 17.394531 18.304688 L 11.324219 17.152344 C 11.199219 17.128906 11.070312 17.164062 10.96875 17.238281 L 7.796875 19.777344 C 6.855469 20.53125 5.734375 21.035156 4.542969 21.230469 L 4.164062 21.292969 L 4.164062 21.054688 C 4.164062 20.707031 4.261719 20.367188 4.441406 20.074219 L 5.179688 18.835938 C 5.4375 18.40625 5.574219 17.910156 5.574219 17.402344 L 5.574219 16.621094 C 5.574219 15.945312 5.730469 15.304688 6.015625 14.730469 C 6.425781 14.511719 9.445312 13.410156 11.472656 14.992188 C 12.777344 16.019531 14.339844 16.691406 15.875 16.882812 C 16.183594 16.921875 16.488281 16.9375 16.785156 16.9375 C 17.992188 16.9375 19.105469 16.628906 19.980469 16.03125 C 21.117188 15.261719 21.492188 14.324219 21.855469 13.417969 C 22.136719 12.710938 22.402344 12.042969 23.035156 11.453125 C 23.210938 11.292969 23.238281 11.019531 23.082031 10.839844 C 22.917969 10.648438 22.632812 10.632812 22.449219 10.800781 C 21.664062 11.527344 21.34375 12.320312 21.035156 13.089844 C 20.695312 13.945312 20.402344 14.683594 19.488281 15.304688 C 17.566406 16.609375 14.421875 16.191406 12.011719 14.304688 C 10.957031 13.476562 9.535156 13.144531 7.898438 13.347656 C 7.535156 13.390625 7.203125 13.457031 6.90625 13.527344 C 7.558594 12.910156 8.410156 12.496094 9.363281 12.390625 L 17.867188 11.445312 C 17.941406 11.4375 18.007812 11.410156 18.066406 11.371094 L 24.175781 7.140625 C 24.292969 7.0625 24.363281 6.925781 24.363281 6.78125 L 24.363281 5.214844 L 25.460938 6.585938 C 25.488281 6.625 25.527344 6.660156 25.570312 6.6875 L 29.101562 8.894531 C 28.992188 9.574219 28.394531 10.097656 27.683594 10.097656 L 25.042969 10.097656 L 24.246094 9.300781 C 24.078125 9.128906 23.800781 9.113281 23.621094 9.28125 C 23.441406 9.453125 23.4375 9.738281 23.613281 9.910156 L 24.550781 10.851562 C 24.621094 10.917969 24.714844 10.960938 24.808594 10.976562 L 24.359375 13.445312 C 24.121094 14.753906 23.425781 15.9375 22.410156 16.789062 L 21.292969 17.714844 C 21.242188 17.761719 21.199219 17.820312 21.171875 17.886719 L 19.667969 21.492188 L 19.667969 18.074219 C 19.667969 17.832031 19.480469 17.621094 19.242188 17.613281 C 18.992188 17.609375 18.785156 17.804688 18.785156 18.054688 L 18.785156 24.628906 C 18.785156 25.390625 19.40625 26.007812 20.167969 26.007812 L 22.035156 26.007812 C 22.136719 26.007812 22.246094 25.976562 22.324219 25.90625 C 22.488281 25.769531 22.527344 25.550781 22.441406 25.371094 L 21.761719 24.011719 C 21.527344 23.542969 21.046875 23.25 20.523438 23.25 L 19.886719 23.25 L 21.941406 18.320312 L 22.972656 17.460938 C 24.152344 16.480469 24.949219 15.109375 25.222656 13.605469 L 25.699219 10.980469 L 27.683594 10.980469 C 28.960938 10.980469 30.003906 9.933594 30 8.65625 C 30 8.503906 29.917969 8.367188 29.792969 8.285156 Z M 8.863281 20.050781 L 11.359375 18.054688 L 11.921875 18.160156 L 8.863281 21.222656 Z M 8.863281 24.128906 L 9.722656 24.128906 C 9.914062 24.128906 10.085938 24.238281 10.167969 24.40625 L 10.53125 25.132812 L 9.363281 25.132812 C 9.085938 25.132812 8.863281 24.90625 8.863281 24.628906 Z M 5.027344 24.128906 C 5.214844 24.128906 5.386719 24.238281 5.472656 24.40625 L 5.835938 25.132812 L 4.667969 25.132812 C 4.390625 25.132812 4.164062 24.90625 4.164062 24.628906 L 4.164062 24.128906 Z M 4.699219 16.621094 L 4.699219 17.402344 C 4.699219 17.636719 4.652344 17.871094 4.570312 18.082031 L 2.0625 18.082031 L 4.730469 16.050781 C 4.707031 16.238281 4.699219 16.429688 4.699219 16.621094 Z M 20.523438 24.128906 C 20.714844 24.128906 20.886719 24.234375 20.972656 24.40625 L 21.335938 25.128906 L 20.167969 25.128906 C 19.890625 25.128906 19.667969 24.902344 19.667969 24.628906 L 19.667969 24.128906 Z M 20.523438 24.128906 "/>
<path style=" stroke:none;fill-rule:nonzero;fill:rgb(0%,0%,0%);fill-opacity:1;" d="M 26.246094 8.191406 C 26.246094 7.949219 26.050781 7.75 25.808594 7.75 L 25.800781 7.75 C 25.558594 7.75 25.367188 7.949219 25.367188 8.191406 C 25.367188 8.433594 25.5625 8.632812 25.808594 8.632812 C 26.050781 8.632812 26.246094 8.433594 26.246094 8.191406 Z M 26.246094 8.191406 "/>
</g>
</svg>
