<svg id="Layer_1" height="512" viewBox="0 0 24 24" width="512" xmlns="http://www.w3.org/2000/svg" xmlns:xlink="http://www.w3.org/1999/xlink" data-name="Layer 1"><linearGradient id="linear-gradient" gradientUnits="userSpaceOnUse" x1="1.801" x2="19.354" y1="11.59" y2="12.293"><stop offset="0" stop-color="#cc2fa9"/><stop offset="1" stop-color="#823cde"/></linearGradient><path d="m11.991 2a10 10 0 1 0 10 10 10.011 10.011 0 0 0 -10-10zm4.99 11h-7.59l1.293 1.293a1 1 0 0 1 -1.414 1.407l-3-3a1 1 0 0 1 0-1.414l3-3a1 1 0 0 1 1.414 1.414l-1.293 1.3h7.59a1 1 0 0 1 0 2z" fill="url(#linear-gradient)"/></svg>