<?xml version="1.0" encoding="UTF-8"?>
<svg xmlns="http://www.w3.org/2000/svg" xmlns:xlink="http://www.w3.org/1999/xlink" width="30px" height="30px" viewBox="0 0 30 30" version="1.1">
<g id="surface1">
<path style=" stroke:none;fill-rule:nonzero;fill:rgb(0%,0%,0%);fill-opacity:1;" d="M 24.609375 28.242188 L 5.390625 28.242188 C 3.410156 28.242188 1.757812 26.589844 1.757812 24.609375 L 1.757812 22.03125 L 2.460938 22.03125 L 2.460938 24.609375 C 2.460938 26.207031 3.792969 27.539062 5.390625 27.539062 L 24.609375 27.539062 C 26.207031 27.539062 27.539062 26.207031 27.539062 24.609375 L 27.539062 5.390625 C 27.539062 3.792969 26.207031 2.460938 24.609375 2.460938 L 21.5625 2.460938 L 21.5625 1.757812 L 24.609375 1.757812 C 26.589844 1.757812 28.242188 3.410156 28.242188 5.390625 L 28.242188 24.609375 C 28.242188 26.589844 26.589844 28.242188 24.609375 28.242188 Z M 2.460938 21.5625 L 1.757812 21.5625 L 1.757812 20.859375 L 2.460938 20.859375 Z M 2.460938 20.390625 L 1.757812 20.390625 L 1.757812 5.390625 C 1.757812 3.410156 3.410156 1.757812 5.390625 1.757812 L 21.09375 1.757812 L 21.09375 2.460938 L 5.390625 2.460938 C 3.792969 2.460938 2.460938 3.792969 2.460938 5.390625 Z M 2.460938 20.390625 "/>
<path style=" stroke:none;fill-rule:nonzero;fill:rgb(0%,0%,0%);fill-opacity:1;" d="M 20.117188 22.625 C 19.914062 22.625 19.691406 22.539062 19.457031 22.367188 C 18.355469 21.570312 17.253906 20.769531 16.152344 19.96875 L 15.914062 19.796875 C 15.554688 19.53125 15.527344 19.535156 15.164062 19.832031 C 14.507812 20.371094 13.925781 20.851562 13.375 21.292969 C 13.25 21.390625 12.871094 21.699219 12.46875 21.574219 C 12.066406 21.453125 11.921875 20.992188 11.875 20.839844 C 11.765625 20.480469 11.652344 20.125 11.542969 19.769531 C 11.210938 18.710938 10.871094 17.617188 10.542969 16.535156 C 10.507812 16.40625 10.46875 16.378906 10.363281 16.339844 C 9.550781 16.046875 8.726562 15.738281 7.929688 15.445312 C 7.644531 15.339844 7.359375 15.234375 7.074219 15.128906 C 6.863281 15.050781 6.550781 14.933594 6.335938 14.636719 C 6.296875 14.578125 6.273438 14.507812 6.273438 14.433594 C 6.273438 13.925781 6.472656 13.628906 6.941406 13.449219 C 12.464844 11.324219 17.449219 9.410156 22.476562 7.46875 C 23.144531 7.207031 23.5 7.535156 23.683594 7.855469 C 23.714844 7.90625 23.730469 7.96875 23.730469 8.027344 C 23.730469 8.21875 20.925781 21.675781 20.898438 21.8125 C 20.8125 22.21875 20.632812 22.476562 20.367188 22.582031 C 20.285156 22.609375 20.203125 22.625 20.117188 22.625 Z M 15.546875 18.898438 C 15.785156 18.898438 16.027344 19.007812 16.328125 19.226562 L 16.566406 19.398438 C 17.667969 20.199219 18.769531 21 19.871094 21.800781 C 20.015625 21.90625 20.089844 21.921875 20.113281 21.921875 C 20.125 21.90625 20.171875 21.84375 20.207031 21.667969 C 21.074219 17.523438 22.785156 9.242188 23.003906 8.109375 C 22.957031 8.0625 22.890625 8.058594 22.726562 8.121094 C 17.699219 10.066406 12.71875 11.980469 7.195312 14.105469 C 7.042969 14.164062 6.996094 14.195312 6.980469 14.304688 C 7.082031 14.375 7.195312 14.429688 7.316406 14.46875 C 7.601562 14.574219 7.886719 14.679688 8.171875 14.785156 C 8.96875 15.078125 9.792969 15.382812 10.601562 15.679688 C 10.90625 15.777344 11.136719 16.023438 11.21875 16.332031 C 11.542969 17.410156 11.882812 18.503906 12.214844 19.558594 C 12.324219 19.917969 12.433594 20.273438 12.546875 20.628906 C 12.605469 20.8125 12.65625 20.878906 12.671875 20.898438 C 12.699219 20.894531 12.78125 20.867188 12.933594 20.742188 C 13.480469 20.304688 14.0625 19.828125 14.714844 19.289062 C 15.035156 19.027344 15.289062 18.898438 15.546875 18.898438 Z M 12.710938 19.574219 L 12.703125 19.574219 C 12.285156 19.566406 12.183594 19.203125 12.144531 19.066406 C 12.050781 18.738281 11.953125 18.410156 11.859375 18.078125 C 11.691406 17.507812 11.519531 16.917969 11.359375 16.335938 C 11.257812 15.957031 11.269531 15.425781 11.90625 15.03125 C 14.054688 13.703125 19.363281 10.4375 19.429688 10.402344 C 19.472656 10.378906 19.515625 10.367188 19.5625 10.363281 C 19.839844 10.335938 20.007812 10.484375 20.078125 10.632812 C 20.160156 10.84375 20.101562 11.085938 19.929688 11.234375 C 19.597656 11.546875 15.542969 15.320312 13.855469 16.878906 C 13.59375 17.121094 13.464844 17.378906 13.441406 17.710938 C 13.410156 18.09375 13.351562 18.472656 13.292969 18.839844 L 13.269531 19.011719 C 13.203125 19.472656 12.929688 19.574219 12.710938 19.574219 Z M 17.902344 12.164062 C 16.21875 13.199219 13.785156 14.695312 12.277344 15.628906 C 12.003906 15.796875 11.980469 15.941406 12.039062 16.148438 C 12.195312 16.726562 12.367188 17.316406 12.53125 17.882812 C 12.574219 18.03125 12.617188 18.179688 12.660156 18.328125 C 12.695312 18.101562 12.722656 17.878906 12.738281 17.65625 C 12.773438 17.15625 13.003906 16.691406 13.378906 16.363281 C 14.453125 15.371094 16.480469 13.484375 17.902344 12.164062 Z M 17.902344 12.164062 "/>
</g>
</svg>
